<svg version="1.1" id="Layer_1" xmlns="http://www.w3.org/2000/svg" xmlns:xlink="http://www.w3.org/1999/xlink" x="0px" y="0px"
	 width="100%" viewBox="0 0 1024 1024" enable-background="new 0 0 1024 1024" xml:space="preserve">
<path fill="#000000" opacity="1.000000" stroke="none" 
	d="
M240.708191,521.063477 
	C242.055054,526.016113 244.701492,529.922668 246.663467,534.143799 
	C252.077927,545.792969 244.860123,556.204468 232.080276,555.196533 
	C215.698761,553.904541 200.267258,540.596741 197.411148,524.491760 
	C195.271744,512.428101 199.107697,502.150757 208.881439,494.400238 
	C211.350159,492.442566 214.198013,490.923004 215.785522,488.008148 
	C217.980835,483.977325 217.136475,478.924957 213.874756,476.773743 
	C210.475311,474.531738 206.047440,475.818878 203.195984,479.985962 
	C202.165100,481.492493 201.361237,483.154297 200.452164,484.744324 
	C198.753922,487.714722 196.384262,489.574127 192.773132,489.304779 
	C188.928879,489.018066 186.846054,486.613068 185.642456,483.231110 
	C184.916916,481.192444 184.395370,479.073853 183.566620,477.080811 
	C181.891403,473.052155 179.113358,470.019714 174.864456,468.673126 
	C169.238037,466.889984 164.644958,469.522949 164.435196,474.919952 
	C163.560730,497.419525 164.058060,519.854675 167.547104,542.175537 
	C168.246918,546.652649 170.387756,548.080444 174.523911,548.838989 
	C189.531082,551.591003 201.345795,558.761169 206.640274,573.974426 
	C209.645935,582.611023 208.865204,591.343140 206.733688,600.053894 
	C203.533707,613.130798 199.425446,626.036804 199.907410,639.775208 
	C200.050690,643.860168 200.666260,647.630127 202.642548,651.270996 
	C206.773880,658.882019 210.575104,666.673096 214.748993,674.259827 
	C216.462936,677.375122 216.018890,679.160095 212.639114,680.265076 
	C211.218643,680.729370 209.864243,681.396362 208.481171,681.974426 
	C197.199203,686.689758 199.532593,688.009766 193.371384,676.753906 
	C169.858917,633.799194 154.740250,587.999939 147.880127,539.515808 
	C141.187012,492.212311 144.792068,445.555206 157.167389,399.504700 
	C166.080719,366.336823 179.399643,334.995514 196.456207,305.216858 
	C197.034851,304.206604 197.653458,303.215576 198.315521,302.258545 
	C198.587830,301.864868 199.024673,301.584961 199.557877,301.096466 
	C202.665268,302.738861 202.649933,306.448578 204.599228,308.705444 
	C211.766357,317.003510 210.294540,324.517273 204.953506,333.608551 
	C196.355515,348.243591 190.288925,364.228882 184.687607,380.294891 
	C184.113403,381.941864 182.968506,383.574097 183.889908,386.147186 
	C190.548050,381.832031 197.237717,377.942444 204.267410,374.660980 
	C215.521545,369.407562 227.403015,366.299103 239.458755,363.626129 
	C243.188721,362.799133 245.507874,363.820618 248.071106,366.694641 
	C260.529694,380.663666 274.756104,392.340271 292.776215,398.497131 
	C304.711517,402.575012 316.904388,404.184906 330.671265,401.178284 
	C325.453644,398.793915 320.960419,398.763580 316.707520,397.863800 
	C293.394379,392.931396 273.930115,381.246704 258.101166,363.718567 
	C245.267990,349.507843 231.905914,335.707977 220.616150,320.175446 
	C214.375656,311.589722 208.720062,302.602692 204.830872,292.254425 
	C207.831680,291.277527 210.423065,291.743286 212.988403,292.203705 
	C246.800232,298.272430 278.530548,292.426392 308.523193,275.894043 
	C325.873688,266.330200 342.863617,255.999283 361.547211,249.081604 
	C371.873505,245.258224 382.372162,241.903473 393.527618,241.728333 
	C398.393036,241.651947 397.754761,239.137085 397.025208,235.789383 
	C389.912659,203.151260 401.103027,176.978699 425.690826,155.683380 
	C427.667725,153.971191 430.176849,152.836319 432.528625,151.604996 
	C434.696625,150.469879 437.019836,150.124100 439.128021,151.761658 
	C441.422455,153.543823 441.554474,156.006821 440.844879,158.569244 
	C438.757355,166.107513 436.488892,173.595428 435.681885,181.430023 
	C434.764191,190.338654 434.947571,199.095230 439.068756,207.311829 
	C442.281525,213.717224 443.260223,213.872787 449.150452,209.935638 
	C461.236572,201.857086 474.397675,196.566406 488.883179,194.661774 
	C504.445190,192.615631 519.000183,196.132767 532.987122,202.589203 
	C538.576904,205.169479 544.017212,208.100586 549.389771,211.114151 
	C552.343628,212.771042 555.274048,213.212006 558.505432,212.507477 
	C583.962646,206.957123 608.757812,207.944489 632.494019,219.872925 
	C637.258362,222.267181 642.064392,220.228333 646.635986,219.057907 
	C668.721802,213.403412 685.766724,200.368500 699.292725,182.358932 
	C704.095459,175.964096 708.820190,169.509460 713.705139,163.178223 
	C715.529724,160.813354 717.650208,158.664658 719.744263,156.523453 
	C721.668213,154.556259 723.908691,152.919449 726.837463,154.040649 
	C729.545776,155.077423 730.008972,157.625641 730.357910,160.183105 
	C731.347656,167.436600 729.978027,174.473328 728.207886,181.407776 
	C722.116455,205.271118 711.646606,226.702225 693.191650,243.644547 
	C686.369141,249.907867 678.769958,255.009689 670.245972,258.523590 
	C666.277466,260.159576 665.920532,262.403473 666.349670,266.229218 
	C667.101074,272.927338 671.495972,277.193634 675.329834,281.958008 
	C677.255859,284.351440 679.303772,282.977936 681.203918,282.273834 
	C691.858032,278.325958 702.778503,275.532410 713.996033,273.647156 
	C731.683350,270.674561 749.207092,272.568359 766.695435,274.988007 
	C786.856628,277.777435 806.850769,278.338470 826.622009,272.501709 
	C827.392029,272.274414 828.223938,272.257050 829.203125,272.116608 
	C831.360291,275.472778 829.591431,278.738159 829.265747,281.855316 
	C825.164978,321.106201 793.941345,363.035736 748.561340,370.712158 
	C743.971863,371.488525 739.366333,372.184326 734.799011,373.075500 
	C715.540955,376.833313 703.430847,388.920197 696.156677,406.519470 
	C693.089600,413.940002 691.127502,421.668793 690.130310,429.645508 
	C689.844910,431.928650 689.354065,434.186127 688.896362,436.804504 
	C685.079468,435.271118 684.056335,431.851807 682.342590,429.232849 
	C673.000244,414.955719 673.219849,402.771759 683.418335,389.067291 
	C690.778381,379.176941 696.906189,368.760864 699.093323,356.514343 
	C702.225037,338.978943 697.892090,323.100189 687.703003,308.683899 
	C689.828003,317.387909 691.820679,326.140015 692.203674,335.082794 
	C692.899780,351.336731 687.908936,366.248901 680.627258,380.540222 
	C678.209229,385.285797 675.735168,390.027832 673.722290,394.949615 
	C669.295349,405.774139 669.932495,416.455505 675.631287,426.693695 
	C681.949951,438.045441 688.676941,449.197754 692.940491,461.551239 
	C695.491821,468.943695 697.739807,476.440979 700.116150,483.893707 
	C706.470398,503.822174 717.932312,520.670532 731.742432,536.062622 
	C739.407410,544.605469 747.609375,552.597107 751.873230,563.746765 
	C755.812073,574.046631 756.401794,584.102844 752.607727,594.439392 
	C749.198975,603.726013 746.890991,613.207153 747.244751,623.219360 
	C747.356873,626.392700 746.536621,629.503723 745.331299,632.461792 
	C741.869385,640.958130 735.710144,644.291931 726.674744,642.858032 
	C718.784912,641.605774 711.192078,638.840698 703.171326,638.304382 
	C692.211426,637.571472 682.217102,641.562073 672.096619,644.810486 
	C662.247559,647.971802 652.326172,650.632263 641.983093,651.693542 
	C637.405396,652.163208 632.965271,651.728699 628.633484,650.664856 
	C618.032410,648.061523 612.002258,639.580139 613.072632,628.200684 
	C614.628540,611.658936 620.829712,596.911926 631.799744,584.351685 
	C643.468628,570.991150 658.886108,566.726807 675.886902,567.233276 
	C684.020752,567.475586 692.107666,569.047302 700.244507,569.492798 
	C711.157410,570.090271 722.003601,569.435486 731.488770,563.097473 
	C737.704224,558.944336 737.672485,556.412415 731.825806,551.864929 
	C726.941040,548.065491 721.665222,544.799194 716.046082,542.275696 
	C699.409363,534.804504 691.208740,521.676819 688.560242,504.002472 
	C686.267273,488.700836 683.020447,473.553345 677.158081,459.088226 
	C671.027954,443.962219 662.585327,430.286621 652.122131,417.813049 
	C650.729980,416.153473 649.268188,414.547791 647.949402,412.831970 
	C643.703125,407.307648 643.703308,406.144745 647.715332,400.538116 
	C652.657104,393.632202 657.783447,386.873871 661.861084,379.362885 
	C670.765381,362.961395 671.718933,346.434601 663.156006,329.662903 
	C660.994873,325.430023 659.958740,321.322815 662.237244,316.811279 
	C670.811890,299.833008 666.559814,288.556061 653.578857,275.603394 
	C649.100281,271.134613 644.227783,267.054535 640.264709,262.086487 
	C639.286560,260.860229 637.573181,259.995972 637.833130,257.909729 
	C639.910339,257.024292 641.222290,258.817505 642.847473,259.351227 
	C648.191650,261.106323 651.807434,258.675842 651.994629,253.035172 
	C652.160889,248.024109 649.680786,244.018433 646.642883,240.436142 
	C640.398254,233.072510 632.313721,228.529999 622.971619,226.422379 
	C615.680969,224.777603 611.316650,229.405762 612.838318,236.727966 
	C613.591919,240.354172 614.914185,243.782608 616.760803,246.956894 
	C621.144226,254.491974 621.197510,262.118744 617.622864,269.918213 
	C617.206360,270.826935 616.802063,271.741608 616.410889,272.661560 
	C611.358398,284.544647 612.083374,287.900604 622.295898,295.662140 
	C629.069092,300.809723 630.973328,307.599670 629.914185,315.542267 
	C629.253601,320.495636 627.922485,325.318268 626.375977,330.085602 
	C624.631836,335.462097 622.932434,340.837372 621.923950,346.447662 
	C620.605774,353.780609 621.891174,360.595825 626.226440,366.369141 
	C632.448425,374.655151 633.748047,383.735901 631.631592,393.369873 
	C629.026855,405.226624 629.025818,416.763550 633.654297,428.129974 
	C634.481628,430.161774 634.629578,432.307892 634.090576,434.610321 
	C633.583557,434.586395 632.918213,434.750977 632.718384,434.517365 
	C623.094482,423.265076 612.768677,412.533661 606.149780,399.031067 
	C602.638245,391.867462 600.821045,384.232208 601.045044,376.325500 
	C601.453674,361.898010 595.971802,350.569244 584.746521,341.583832 
	C575.749023,334.381683 567.464294,326.399750 561.615051,316.254303 
	C556.353149,307.127502 557.431885,302.097595 565.992188,296.082306 
	C571.908813,291.924713 572.908936,286.648834 568.910339,280.546448 
	C566.780640,277.296265 563.898621,274.769531 560.895264,272.371582 
	C557.119141,269.356598 553.195251,266.510193 549.581421,263.312683 
	C545.052673,259.305695 544.742004,256.109344 547.872009,250.996445 
	C548.132690,250.570526 548.434021,250.169739 548.704712,249.749680 
	C556.219116,238.089447 553.858948,227.476929 542.065918,219.892105 
	C527.409241,210.465469 508.475922,211.770706 493.583893,223.383453 
	C490.309174,225.937073 487.152130,228.712219 484.307007,231.730453 
	C479.428925,236.905273 474.839417,242.352112 470.600983,248.408493 
	C480.944092,245.059433 491.287201,241.710373 501.865936,238.285034 
	C502.618347,241.431458 500.496796,242.448364 499.294556,243.778000 
	C493.453491,250.237885 485.943237,254.113770 478.028625,257.414612 
	C469.731934,260.874817 461.388702,264.255432 454.037415,269.627899 
	C438.741943,280.806122 434.546783,297.765503 443.052155,314.725128 
	C446.209564,321.020996 449.815521,326.978149 455.875458,331.033508 
	C462.552460,335.501831 469.423004,336.045868 476.686829,332.543640 
	C483.279297,329.365112 488.486603,324.506927 493.381348,319.227142 
	C503.089874,308.755005 510.600677,309.295715 518.726196,321.100494 
	C520.330444,323.431152 521.928894,325.799072 523.210632,328.312653 
	C528.413635,338.516205 535.606628,346.764801 545.716675,352.411621 
	C553.352478,356.676483 556.645264,363.504547 557.389221,372.119568 
	C558.396790,383.787537 564.227661,392.359497 575.011414,397.484711 
	C589.231750,404.243195 588.622986,404.225128 585.776184,419.864502 
	C580.706604,447.714417 584.298340,473.954102 602.936340,496.615082 
	C608.986084,503.970642 617.240967,508.477081 625.353088,513.113342 
	C635.361328,518.833191 645.072327,524.966980 652.977051,533.529297 
	C654.639832,535.330444 656.599548,536.979858 656.937866,539.604187 
	C655.946960,541.489624 654.111084,542.061279 652.472656,542.767151 
	C622.865479,555.522217 606.635803,579.159424 598.173645,609.208435 
	C595.884888,617.335693 593.268738,625.370728 590.321655,635.024170 
	C577.601624,621.115173 563.796021,610.962952 544.778992,607.833679 
	C547.259216,611.206299 550.104309,612.307678 552.483887,613.957397 
	C562.755371,621.078491 570.498901,630.722961 578.601624,640.006958 
	C586.509155,649.067383 596.476685,654.251953 608.317627,655.939026 
	C630.434998,659.090149 651.845520,655.924927 672.628906,648.248047 
	C687.968079,642.582214 703.391846,639.610291 719.531128,644.423279 
	C721.580750,645.034485 723.864197,644.126587 726.090088,645.318481 
	C725.951782,648.793213 723.644958,650.939270 721.250061,652.921692 
	C717.753113,655.816467 713.794006,658.020813 709.469360,659.361511 
	C688.139343,665.974426 666.791626,672.467773 644.018799,671.355530 
	C638.504517,671.086243 632.993103,670.692078 627.715698,669.254089 
	C617.875549,666.572754 607.706482,666.144043 597.764343,664.258423 
	C595.324829,663.795715 592.606323,663.408691 590.643738,662.067993 
	C581.851135,656.061523 571.631409,656.366943 561.828491,655.512085 
	C535.436279,653.210571 508.967621,652.104309 482.464264,652.297302 
	C447.967987,652.548584 413.619446,654.858643 379.348541,658.949219 
	C328.951477,664.964600 279.509186,675.336060 231.138931,690.611694 
	C195.207947,701.959045 159.974350,715.173462 126.511276,732.722107 
	C125.417480,733.295593 124.330284,734.382080 122.827072,733.439697 
	C123.136284,731.189575 125.209740,730.786438 126.638840,729.873535 
	C177.816299,697.180725 233.431168,674.928040 292.035187,659.753296 
	C318.007782,653.028015 344.320831,647.983582 370.943359,644.721680 
	C376.438843,644.048340 378.457672,641.417297 378.596710,636.486023 
	C378.695282,632.989441 378.579865,629.487305 378.622467,625.988403 
	C378.769135,613.942444 385.088440,605.844849 396.788666,602.863403 
	C401.620758,601.631958 406.690308,601.125061 411.340424,599.432861 
	C419.380280,596.507080 421.388397,586.800171 415.628571,580.557800 
	C411.815155,576.424927 406.113068,575.832458 400.582642,579.263977 
	C396.766296,581.631958 393.258331,584.503784 389.407257,586.807251 
	C382.075287,591.192627 374.203308,592.736267 365.907532,589.965881 
	C357.765503,587.246765 356.272430,580.659180 362.398193,574.705261 
	C365.857880,571.342590 369.926025,568.518677 372.963898,564.829407 
	C377.685730,559.095093 381.620880,552.739685 378.531860,544.740417 
	C375.010834,535.622437 364.909180,534.047180 358.747192,541.570312 
	C353.047180,548.529358 347.739197,548.610901 341.992462,541.548462 
	C332.271027,529.601318 329.785858,516.019836 333.102386,501.128357 
	C334.348022,495.535217 334.312347,489.855682 332.574371,484.329956 
	C330.195007,476.765076 323.271515,472.571930 316.927826,474.713196 
	C309.907776,477.082764 306.459137,485.352905 309.311554,492.868927 
	C310.155762,495.093384 311.403320,497.080231 313.005585,498.765076 
	C319.256561,505.338379 321.229584,512.968201 319.268158,521.794312 
	C317.163116,531.266296 320.157013,539.505127 325.799866,547.017151 
	C328.408600,550.490051 330.881287,554.048645 332.209045,558.246582 
	C334.735687,566.234924 330.459686,573.722656 322.128662,574.170898 
	C306.080933,575.034302 290.947723,571.083679 277.609283,562.078979 
	C269.644928,556.702209 267.847046,546.913635 271.607544,536.361938 
	C272.891754,532.758545 274.655151,529.325378 275.926514,525.718140 
	C278.807068,517.544983 276.815308,510.457703 270.457520,505.522339 
	C263.378113,500.026794 253.059509,499.011047 246.635071,503.407074 
	C240.469055,507.626312 239.402283,513.796326 240.708191,521.063477 
M174.467743,438.906708 
	C182.284378,432.371521 189.364746,431.874207 194.549347,438.556458 
	C200.687180,446.467316 207.911667,448.028961 217.043182,445.213196 
	C228.157623,441.785919 238.411499,443.944275 247.675949,450.963348 
	C248.962860,451.938324 250.074631,453.326416 252.523849,453.307892 
	C259.405548,440.677155 261.551910,427.405701 254.872620,414.032013 
	C246.486786,397.241302 232.656891,387.813263 213.611938,387.135986 
	C199.375931,386.629700 189.235733,393.938232 181.272186,405.348114 
	C186.917068,404.276642 192.384811,403.052582 197.939301,405.014160 
	C203.224731,406.880676 208.513290,408.661682 212.768600,413.112244 
	C210.634155,414.433441 209.554474,413.658478 208.442825,413.511261 
	C196.919250,411.985321 186.618744,414.251343 176.871201,421.217224 
	C168.113586,427.475708 170.115784,436.371796 167.703552,445.384430 
	C171.314529,443.598267 172.095108,440.978424 174.467743,438.906708 
M273.930054,309.668701 
	C279.559235,322.555695 286.424133,334.736115 295.517639,345.496277 
	C314.340820,367.769348 336.828156,379.884369 366.884918,370.794067 
	C376.456024,367.899414 386.207031,367.561401 395.942719,370.336761 
	C396.771332,370.572937 397.611084,370.483795 398.209778,369.052002 
	C397.425415,366.922058 395.554657,365.315186 393.583832,363.830231 
	C386.005768,358.120392 377.511963,356.887360 368.471039,359.048401 
	C360.690247,360.908203 352.970642,363.100006 344.847534,362.313080 
	C341.992554,362.036499 338.886383,362.252869 336.523010,359.344574 
	C339.764313,356.353424 345.072174,357.518707 348.257812,352.715515 
	C339.573425,354.269043 331.799530,354.935852 324.223969,352.354462 
	C316.734558,349.802460 311.243073,344.631989 306.361450,338.577698 
	C313.801636,339.292175 320.973541,340.900970 329.673981,338.887726 
	C305.666199,334.855255 288.556366,323.680817 287.876038,312.167755 
	C288.492981,312.039490 289.139862,311.758728 289.767975,311.795776 
	C305.782227,312.739624 321.177002,308.923798 336.680786,305.825897 
	C365.028229,300.161499 390.237793,306.018707 411.384674,326.508331 
	C412.384705,327.477264 413.389221,328.715240 415.422577,328.509888 
	C415.094391,327.306305 414.911743,326.179657 414.488068,325.152374 
	C409.552490,313.184784 400.882263,304.799866 389.387390,299.167694 
	C373.486115,291.376556 356.704468,291.685394 339.988770,294.840332 
	C318.263184,298.940826 296.875092,305.080353 274.453461,304.308655 
	C273.881134,304.288971 273.291809,304.762878 272.891083,304.930878 
	C272.237000,306.653717 273.223297,307.762268 273.930054,309.668701 
M736.133240,350.550507 
	C723.641174,354.246307 714.474426,361.707611 712.084534,370.574860 
	C720.113770,365.945221 728.325562,362.926941 737.168091,361.821533 
	C774.848145,357.111053 797.945740,335.087250 810.212280,300.240967 
	C810.805542,298.555511 811.473938,296.810516 810.834534,294.608582 
	C807.569214,293.921143 804.317810,295.099670 801.116943,295.428650 
	C788.121643,296.764099 775.161133,294.851227 762.196228,295.377686 
	C749.972900,295.874084 738.026001,297.721954 727.026855,303.585663 
	C718.475647,308.144348 711.620117,314.278748 707.524902,324.089478 
	C729.431763,305.203522 747.791992,302.148834 772.188538,302.673492 
	C780.664429,302.855774 789.174866,303.176941 797.523743,301.019287 
	C798.891785,300.665710 800.478516,300.317108 802.203918,302.245148 
	C795.621399,315.489624 784.259399,323.099121 769.315002,328.319336 
	C775.678101,328.857513 780.198120,326.391510 786.325745,325.729645 
	C778.997925,335.387817 769.975220,338.703644 759.401306,339.891541 
	C761.867859,341.552856 764.523438,339.664673 766.336548,341.626343 
	C765.862000,343.744232 763.928528,343.757599 762.565247,344.537903 
	C754.615356,349.088470 745.490906,348.470520 736.133240,350.550507 
M399.312958,449.636261 
	C397.788788,461.840515 395.932556,474.014496 394.817993,486.256042 
	C393.127167,504.826874 397.060608,522.061340 409.130554,536.744690 
	C414.337860,543.079407 420.884521,547.881470 428.698944,550.820129 
	C427.752289,548.526123 426.480469,546.604736 425.153198,544.722595 
	C418.572388,535.390930 413.813446,525.238953 410.603729,514.253052 
	C404.597809,493.696533 407.055084,473.035980 409.283722,452.343384 
	C410.614685,439.985718 409.306305,428.061768 402.924713,417.126221 
	C400.033020,412.171021 396.517029,407.699829 390.839996,405.248505 
	C397.405396,419.141693 400.887482,433.452087 399.312958,449.636261 
M292.996643,463.601898 
	C291.668182,462.351440 290.466003,460.921722 288.989502,459.881378 
	C282.355103,455.206787 275.079956,457.687744 273.918457,465.623871 
	C273.203522,470.508789 271.158691,472.860413 266.803680,474.439697 
	C263.214996,475.741119 261.481903,479.000214 261.437500,482.753998 
	C261.394806,486.367310 263.319122,489.013123 266.553741,490.702240 
	C273.490326,494.324463 286.035797,491.952271 292.023651,485.853485 
	C297.490265,480.285614 297.997803,472.592438 292.996643,463.601898 
M451.999634,241.657913 
	C451.999634,243.600433 451.999634,245.542938 452.006378,247.485306 
	C454.909058,243.206680 455.777191,236.785812 454.085907,232.475037 
	C453.376587,230.667175 452.331635,229.489120 450.287659,228.946762 
	C435.165375,224.934235 428.907104,213.808105 426.618439,199.407288 
	C425.352081,191.439041 426.508911,183.564926 426.734955,175.655655 
	C418.499420,193.091019 417.389221,210.549667 427.072845,227.917297 
	C430.319305,233.739838 435.031799,238.145599 441.289124,240.691574 
	C442.923309,241.356491 444.408752,242.178925 445.941040,239.831909 
	C448.247559,236.299011 450.471985,237.063461 451.999634,241.657913 
M659.183167,608.311768 
	C663.344849,615.011780 669.500183,618.055115 677.240112,617.727783 
	C683.082703,617.480652 686.672668,613.564148 686.910034,607.737671 
	C687.292358,598.352539 680.042236,589.624695 669.708862,587.330505 
	C664.855530,586.253113 659.896118,585.279419 653.625610,588.173523 
	C665.851440,591.431030 671.423279,598.149536 670.003540,609.954285 
	C662.354980,611.635864 660.993958,602.757141 655.269287,600.942566 
	C656.534058,603.348816 657.677429,605.524109 659.183167,608.311768 
M709.072693,191.561142 
	C710.361755,189.231842 711.700134,186.928146 712.925476,184.565842 
	C714.077087,182.345886 715.322815,180.119781 715.161499,176.458038 
	C705.926331,188.192108 697.468506,199.279236 686.654053,208.303452 
	C675.771179,217.384705 663.303772,223.418976 649.493591,228.123962 
	C651.458740,230.297256 652.303284,233.302994 655.020630,232.467361 
	C660.869263,230.668762 667.039185,230.194092 672.641235,227.260681 
	C688.189026,219.119400 699.480652,206.753082 709.072693,191.561142 
M519.948242,639.246826 
	C518.760559,640.284363 516.804749,640.480347 516.195923,643.235291 
	C534.607788,645.092285 552.529541,649.457031 571.220276,651.177002 
	C570.749634,647.992737 569.280273,647.024231 568.135864,645.870667 
	C554.552612,632.178833 540.299866,630.099731 519.948242,639.246826 
M452.615356,606.355591 
	C472.747742,625.771362 497.882263,628.696472 524.183044,627.795837 
	C498.564331,623.933594 473.499420,618.378052 451.123474,604.302612 
	C451.494415,604.835510 451.865356,605.368469 452.615356,606.355591 
M525.457275,371.929810 
	C518.912598,367.397491 507.795868,367.355621 501.502258,372.882843 
	C510.266174,371.991211 518.149048,373.100677 525.047852,378.337738 
	C531.845154,383.497711 534.205505,391.839294 539.869446,399.199310 
	C537.656921,388.127075 534.790833,378.710663 525.457275,371.929810 
M315.718842,439.626862 
	C310.141663,439.201324 306.871857,441.392059 306.313751,445.928162 
	C305.781067,450.257874 308.673401,454.363800 312.826599,455.173676 
	C316.681946,455.925446 320.615662,453.048004 321.400055,448.705963 
	C322.165375,444.469177 319.891174,441.819275 315.718842,439.626862 
M510.163849,404.956360 
	C500.051392,402.707031 495.578613,395.938934 495.658600,385.949890 
	C490.307129,386.717377 489.970673,387.281158 490.899017,391.562836 
	C493.832947,405.094757 504.626282,410.313751 521.497437,405.118042 
	C517.325195,405.118042 514.171570,405.118042 510.163849,404.956360 
M725.002197,608.894531 
	C723.326782,599.261108 731.070251,594.346558 735.662903,587.828308 
	C728.127197,592.108521 723.371277,598.314331 722.314636,606.980164 
	C721.835693,610.908569 722.651123,614.551453 727.156921,615.561829 
	C731.490906,616.533752 733.785645,613.638062 734.714172,610.023743 
	C735.975342,605.114380 738.221619,600.756042 740.725159,596.435547 
	C741.869507,594.460510 742.678528,592.265259 742.189636,589.721252 
	C740.194763,597.284668 735.142334,603.064209 731.184692,609.487366 
	C729.062500,612.931458 727.380188,612.690247 725.002197,608.894531 
M734.810669,282.686371 
	C735.828003,282.422546 737.039551,283.115570 738.412598,281.599274 
	C727.771545,281.096741 717.694763,280.711487 707.827637,284.292511 
	C711.846375,286.887390 715.741760,285.866180 719.825623,284.972046 
	C724.492432,283.950256 729.154907,282.597565 734.810669,282.686371 
M529.795105,395.232452 
	C529.018311,392.949615 528.335938,390.602142 525.473572,388.784363 
	C525.717163,392.621796 523.027466,394.941467 522.780151,398.604584 
	C525.532593,397.902161 528.647034,399.675385 529.795105,395.232452 
M517.237549,386.665009 
	C518.120422,384.526886 517.333313,383.110657 515.224915,382.507111 
	C513.820923,382.105194 512.641968,382.749817 511.858063,383.971771 
	C511.157806,385.063354 511.215698,386.185913 512.089478,387.144501 
	C513.618103,388.821411 515.226196,388.628052 517.237549,386.665009 
z"/>
<path fill="#000000" opacity="1.000000" stroke="none" 
	d="
M737.490967,668.474731 
	C732.959167,666.031860 735.945923,661.853394 734.593750,658.819397 
	C732.320801,653.719482 736.713257,653.520386 739.510620,652.250916 
	C748.649963,648.103149 754.578857,640.609070 755.212036,631.169922 
	C756.204590,616.372253 759.835876,602.341736 763.802246,588.264893 
	C765.750671,581.349731 764.399170,574.441589 763.184875,567.238220 
	C771.789856,565.737366 779.872742,567.187683 787.864990,568.136047 
	C805.415344,570.218628 822.626770,574.090393 839.634033,578.936279 
	C844.080505,580.203186 845.528870,581.911743 843.990295,586.642273 
	C840.540588,597.249084 837.230408,607.893555 833.329590,618.352417 
	C831.901794,622.180603 830.334229,622.677063 826.788513,620.486389 
	C810.552368,610.455261 793.417175,602.392700 774.757019,597.897644 
	C773.817993,597.671509 772.873352,597.468933 771.803894,597.572571 
	C782.597900,603.291138 793.874939,608.019775 804.284180,614.393188 
	C810.958679,618.479980 817.453735,622.860840 824.146057,626.917236 
	C827.661499,629.047974 828.273621,631.283020 826.453796,635.118774 
	C820.523743,647.618164 814.313782,659.958191 807.425476,671.957153 
	C806.691895,673.235046 806.156006,674.626282 805.559387,675.898926 
	C810.893616,680.566589 812.286560,680.393799 815.496826,674.812012 
	C836.927856,637.548462 852.362976,597.982666 860.273132,555.685425 
	C867.510986,516.983032 869.029053,478.146423 863.041748,438.989441 
	C857.019653,399.605042 845.438721,362.162842 827.264771,326.747253 
	C825.778748,323.851379 825.332092,321.321014 826.905396,318.299530 
	C830.191650,311.988434 831.788025,304.979218 835.065857,298.284210 
	C870.286682,358.538025 888.245178,423.422211 887.107361,493.160980 
	C885.969849,562.875854 866.363159,627.617310 831.060791,688.288879 
	C858.328735,701.689209 884.211670,716.362732 909.443848,733.334534 
	C906.800110,734.644165 905.644897,733.346802 904.414490,732.693787 
	C854.617432,706.264038 802.408020,686.028931 747.914795,671.636475 
	C744.538330,670.744690 741.219116,669.635925 737.490967,668.474731 
z"/>
<path fill="#000000" opacity="1.000000" stroke="none" 
	d="
M615.696960,861.847412 
	C586.638184,870.609436 557.376465,875.497986 527.394714,876.427612 
	C449.545135,878.841553 379.298950,856.281982 315.591156,812.257507 
	C311.053406,809.121826 307.044922,808.206848 301.750793,809.375793 
	C280.127289,814.150269 258.456787,818.694397 237.252731,825.182068 
	C235.996750,825.566345 234.586700,826.822083 232.404419,824.786011 
	C324.883087,785.866272 421.621674,772.647827 520.484680,772.134766 
	C619.495056,771.620972 716.080322,785.543518 809.021301,824.949890 
	C806.001099,826.312134 804.354248,825.289612 802.749817,824.802307 
	C778.193054,817.343872 753.191895,811.734558 728.064575,806.615540 
	C724.665222,805.923035 722.330750,807.298645 719.863281,809.123596 
	C692.354187,829.469910 662.568054,845.580017 630.316589,857.065002 
	C625.613953,858.739624 620.822021,860.163452 615.696960,861.847412 
M355.002167,813.454834 
	C423.969940,852.660461 497.462799,865.904968 575.646790,851.612732 
	C618.907410,843.704651 658.330994,826.539429 694.493469,801.487244 
	C575.851074,781.466003 457.502533,782.636841 339.262146,802.419739 
	C339.192169,802.872009 339.122192,803.324341 339.052246,803.776672 
	C344.165436,806.868286 349.278656,809.959900 355.002167,813.454834 
z"/>
<path fill="#000000" opacity="1.000000" stroke="none" 
	d="
M732.994263,499.716431 
	C745.942322,500.044708 758.188599,502.548370 770.571716,503.903870 
	C770.999817,495.791992 766.107178,489.082153 758.507263,486.795776 
	C739.236877,480.998352 730.883057,467.022003 734.761536,447.067871 
	C735.803528,441.706879 736.538574,441.277374 741.768433,443.210663 
	C754.594299,447.951874 764.180542,456.114044 769.007690,469.412659 
	C769.673340,459.701202 769.629700,450.148712 773.009888,440.993805 
	C780.473083,420.780273 795.934143,409.743347 815.591614,403.459778 
	C822.429199,401.274139 829.509094,400.148529 836.607178,399.175110 
	C839.010559,398.845490 840.813049,399.190002 841.282654,402.172424 
	C846.196106,433.376160 835.165039,460.895264 808.541992,475.456848 
	C803.557129,478.183350 798.268555,480.132477 792.742065,481.560486 
	C783.929688,483.837524 776.299011,493.353302 775.617920,502.286072 
	C775.383789,505.356903 777.615051,505.327637 779.480347,505.722473 
	C796.099060,509.240051 812.626404,513.108826 828.678711,518.746399 
	C836.218079,521.394226 843.669556,524.291687 851.198730,526.969604 
	C854.399780,528.108154 855.687927,530.036255 854.925781,533.450317 
	C853.773804,538.610718 853.825745,544.018555 851.596497,550.097534 
	C820.400513,532.770386 787.371399,521.632935 752.406494,516.376953 
	C764.814087,519.463196 776.982544,523.321838 789.016968,527.613831 
	C809.645325,534.970703 829.284119,544.363953 847.851562,556.002808 
	C850.048157,557.379761 850.542847,558.988403 850.194824,561.421936 
	C848.207031,575.324524 848.230225,575.391113 834.875000,571.620300 
	C811.720337,565.082581 788.110474,561.232239 764.143799,559.442078 
	C762.137329,559.292297 760.181213,559.412476 759.192200,557.012817 
	C755.081360,547.038757 747.343140,539.778931 740.174194,532.150696 
	C731.695068,523.128479 723.969482,513.577393 717.842407,502.790070 
	C717.441101,502.083496 717.210388,501.280060 716.592041,499.767609 
	C722.131226,498.705658 727.362488,500.083954 732.994263,499.716431 
M803.878540,436.407776 
	C806.683533,433.891296 809.488464,431.374817 812.293457,428.858368 
	C792.678162,442.465637 782.239319,462.435608 774.575134,484.470825 
	C772.442566,480.747467 771.988770,476.903168 769.837402,473.412384 
	C768.600098,481.747284 767.823853,489.595154 774.254700,496.918457 
	C780.041077,474.718903 789.024231,454.477875 803.878540,436.407776 
z"/>
<path fill="#000000" opacity="1.000000" stroke="none" 
	d="
M354.111572,178.183014 
	C317.351532,198.638641 285.362488,224.450241 257.653839,255.602051 
	C249.562073,264.699310 242.095337,274.285400 234.887726,284.082947 
	C233.988083,285.305847 233.146484,286.792694 231.494949,286.756226 
	C224.432541,286.600250 217.373550,286.288361 210.469971,286.039032 
	C209.836960,283.172852 211.291489,281.809814 212.275757,280.370605 
	C247.629959,228.675903 292.775299,187.862885 348.004242,158.238998 
	C389.437958,136.014633 433.556549,122.181686 480.213013,116.988609 
	C551.700745,109.031677 619.440430,122.061203 683.391479,154.913467 
	C687.686951,157.120102 691.847168,159.593765 696.171326,161.739487 
	C699.449829,163.366302 699.654419,165.261276 697.452576,167.960556 
	C695.665283,170.151688 694.031921,172.475189 692.424194,174.804810 
	C687.929260,181.318344 689.389343,182.056152 680.855835,177.326736 
	C645.715942,157.851730 608.446655,144.443069 568.648621,138.601913 
	C538.030090,134.108063 507.360229,133.817627 476.579803,137.910492 
	C433.306366,143.664520 392.639221,156.986832 354.111572,178.183014 
z"/>
<path fill="#000000" opacity="1.000000" stroke="none" 
	d="
M656.101440,742.050232 
	C654.518127,747.028198 651.166565,746.940186 647.194397,746.360779 
	C643.277649,745.789551 643.206909,742.992493 642.688354,740.212158 
	C640.807922,730.128906 638.898865,720.051025 636.056030,710.033325 
	C635.142456,716.438049 634.196106,722.838318 633.334473,729.249939 
	C633.062378,731.274170 633.056396,733.263367 635.425171,734.310547 
	C637.543213,735.246887 637.298767,737.216431 637.273376,739.055969 
	C637.162659,747.068420 636.025024,748.012024 628.146973,746.868225 
	C624.195129,746.294495 620.224976,745.835876 616.254211,745.407349 
	C614.288269,745.195312 612.817078,744.294556 613.344299,742.272034 
	C614.369324,738.339783 612.167114,732.747742 618.738831,731.431885 
	C620.078918,731.163635 620.385864,729.415771 620.566284,728.093018 
	C621.757874,719.358154 622.907776,710.617554 624.061646,701.877563 
	C624.213257,700.729187 624.604797,699.215332 623.339111,698.709839 
	C616.480774,695.970093 621.614075,691.005066 621.200439,687.127808 
	C621.048401,685.702148 622.746460,685.175964 624.241699,685.339966 
	C632.513184,686.247314 640.787903,687.125549 649.055359,688.067688 
	C651.169250,688.308655 652.098206,689.642456 652.415466,691.757019 
	C653.278870,697.512268 654.325684,703.239807 655.286682,708.980530 
	C655.449341,709.952637 655.384888,711.009094 656.944336,711.812378 
	C660.339172,707.170532 662.584412,701.812073 664.881104,696.576538 
	C666.836975,692.118042 669.119263,690.197266 674.338928,691.419556 
	C680.628296,692.892517 687.178528,693.222534 693.581116,694.260986 
	C695.313538,694.541931 698.244812,694.359924 697.595642,697.425110 
	C696.869080,700.855713 698.781128,705.712830 693.863342,707.158081 
	C691.188721,707.944092 690.553589,709.174500 690.230286,711.579712 
	C689.144653,719.655884 687.862915,727.705994 686.624329,735.761108 
	C686.226807,738.346985 686.355103,740.155518 689.106140,741.980713 
	C693.232727,744.718506 689.951172,748.981323 689.671021,752.481689 
	C689.417236,755.652100 686.502808,754.621704 684.450623,754.328003 
	C678.027466,753.408447 671.637268,752.198120 665.189697,751.531982 
	C660.998657,751.099060 660.198303,749.016846 661.033569,745.465149 
	C661.835266,742.055847 661.408325,738.024658 666.566162,737.285950 
	C668.208801,737.050781 668.179199,734.484802 668.385498,732.923706 
	C669.181824,726.897583 669.752136,720.841675 670.553406,713.441833 
	C665.388489,723.663025 660.827454,732.689209 656.101440,742.050232 
z"/>
<path fill="#000000" opacity="1.000000" stroke="none" 
	d="
M851.754761,750.381958 
	C844.608459,749.452942 839.920410,754.157349 834.501038,756.784180 
	C832.724609,757.645325 833.375854,759.643372 833.842285,761.301575 
	C835.553589,767.385376 837.189697,773.490295 838.895752,779.575623 
	C839.204834,780.678284 839.542786,781.836975 840.163757,782.773315 
	C841.113953,784.205994 844.124512,784.154053 843.616821,786.506470 
	C842.991028,789.405945 841.788147,792.198303 840.660828,794.966248 
	C839.820190,797.030457 838.088928,796.714600 836.420959,796.105286 
	C829.542847,793.592651 822.690552,791.007263 815.784729,788.573608 
	C813.362732,787.720093 812.636475,786.369934 813.646118,784.031189 
	C814.041260,783.115601 814.145264,781.973022 814.764343,781.271179 
	C820.758179,774.476074 817.125000,767.786133 814.719666,760.995117 
	C810.773376,766.058411 810.725220,768.575806 812.779846,774.614319 
	C813.970093,778.112732 811.535889,781.409485 810.040527,784.424927 
	C808.707031,787.113831 806.183533,785.032715 804.289673,784.453735 
	C798.404114,782.654419 792.592957,780.611328 786.703125,778.827271 
	C783.647644,777.901733 782.568481,776.369141 784.080383,773.346069 
	C785.713196,770.081116 785.124084,765.098633 791.033752,765.269409 
	C792.420776,765.309448 792.863586,763.052856 793.339661,761.660767 
	C796.140198,753.472534 798.901489,745.270752 801.614868,737.053284 
	C802.003784,735.875366 802.945068,734.500549 801.520142,733.391296 
	C800.240723,732.395447 798.287476,731.810120 798.911682,729.669678 
	C799.746582,726.806946 800.689453,723.956787 801.857971,721.217285 
	C802.540955,719.616028 804.112488,720.174622 805.377563,720.593872 
	C812.169250,722.844849 818.945984,725.141235 825.738464,727.389954 
	C828.443665,728.285522 829.734314,729.893250 828.226868,732.637695 
	C826.511536,735.760620 827.421997,740.529053 821.403198,741.006653 
	C819.097046,741.189575 818.294312,745.894348 818.693054,749.386536 
	C823.238892,749.224182 826.040833,746.019226 829.910034,744.535217 
	C828.055176,739.925659 831.009277,736.473083 832.268311,732.671875 
	C833.021912,730.396667 835.003235,730.642517 836.881531,731.309021 
	C842.527283,733.312561 848.169434,735.326111 853.821411,737.311829 
	C855.865051,738.029785 857.031677,739.361450 856.095520,741.478455 
	C854.787109,744.437134 855.205933,748.184570 851.754761,750.381958 
z"/>
<path fill="#000000" opacity="1.000000" stroke="none" 
	d="
M305.161652,761.548706 
	C305.349762,763.080566 305.627899,764.505310 304.264709,764.968933 
	C299.072906,766.734924 293.820953,768.345825 288.379700,769.153564 
	C286.241791,769.470886 285.107605,767.766907 283.977295,766.345398 
	C280.249542,761.657349 276.555817,756.941956 272.880127,752.212891 
	C271.372681,750.273376 269.809723,748.491699 267.068756,749.984619 
	C264.396423,751.440125 266.251190,753.558655 266.578522,755.286804 
	C267.140106,758.251709 268.105560,760.294800 272.023041,761.138062 
	C276.089996,762.013489 275.283508,767.140137 276.029449,770.518127 
	C276.626465,773.221741 273.807373,773.455139 272.013733,773.989563 
	C265.639191,775.889160 259.159515,777.454468 252.842834,779.522644 
	C249.143951,780.733765 247.537338,779.447693 246.837708,776.019348 
	C246.134964,772.575684 243.247040,768.837646 248.718582,766.418213 
	C249.914230,765.889526 248.938934,763.908936 248.598434,762.686646 
	C246.233322,754.196228 243.792908,745.726807 241.357880,737.255981 
	C240.741867,735.113098 239.945038,734.025818 237.087296,733.572205 
	C232.349747,732.820251 233.415924,727.627930 232.347336,724.253174 
	C231.449158,721.416626 234.222717,721.168945 236.020264,720.660889 
	C246.261261,717.766357 256.461975,714.688110 266.803741,712.201904 
	C278.889038,709.296631 287.640381,714.376343 289.906708,725.002625 
	C291.171783,730.934204 288.666016,735.667480 284.668518,740.183838 
	C288.431519,742.422424 290.740906,745.694092 293.278381,748.738342 
	C295.232513,751.082764 297.043091,753.386169 300.689697,752.665833 
	C302.615631,752.285339 303.135193,753.836975 303.499115,755.421753 
	C303.944550,757.361450 304.551605,759.263977 305.161652,761.548706 
M266.498047,737.925049 
	C270.803345,736.677002 271.742462,733.645386 270.466095,729.804565 
	C269.176758,725.924683 266.033356,725.908325 262.709839,726.631958 
	C260.326660,727.150879 258.253418,728.406982 259.574677,730.981201 
	C261.006531,733.771057 259.200989,739.762573 266.498047,737.925049 
z"/>
<path fill="#000000" opacity="1.000000" stroke="none" 
	d="
M453.186951,717.013000 
	C452.417969,715.957947 451.840332,715.174133 450.759705,713.707764 
	C449.859192,719.015442 450.215088,723.536621 450.723297,728.043335 
	C450.884216,729.470276 451.793701,730.531921 453.339600,730.633545 
	C455.748535,730.791748 456.101166,732.352661 456.420715,734.352844 
	C457.880615,743.490662 457.556976,743.898926 448.238220,744.250427 
	C445.085327,744.369263 441.939117,744.717834 438.795654,745.021545 
	C435.651978,745.325439 433.543121,744.507996 433.639465,740.812866 
	C433.734680,737.161377 431.203461,732.754272 437.004211,730.886353 
	C438.263489,730.480835 437.937286,728.529602 437.878723,727.213623 
	C437.486847,718.406738 437.066895,709.601196 436.656616,700.795166 
	C436.593994,699.450562 436.629578,697.759155 435.113190,697.419434 
	C428.136932,695.856873 431.392426,690.358582 430.850342,686.419067 
	C430.602539,684.618530 432.289764,683.967834 433.907867,683.853149 
	C435.566681,683.735657 437.341705,684.079041 438.878845,683.608948 
	C451.568848,679.728455 458.580780,685.921570 463.635040,696.733398 
	C465.934845,701.653137 469.465332,705.997437 472.828827,711.208923 
	C472.828827,706.464539 472.855316,702.453308 472.814270,698.442688 
	C472.800171,697.066772 472.386597,695.997681 470.914581,695.276611 
	C467.419312,693.564453 465.378296,686.295715 467.360321,683.220276 
	C468.330933,681.714294 469.894836,681.834778 471.372131,681.758301 
	C476.186127,681.509033 481.005981,681.350830 485.814392,681.023132 
	C489.021362,680.804565 490.606903,682.158936 490.300171,685.343628 
	C489.966492,688.807983 492.012878,692.853882 486.684814,694.983337 
	C484.048035,696.037109 485.465637,699.833984 485.573608,702.382385 
	C486.045197,713.510864 486.516113,724.644287 487.327789,735.751099 
	C487.698242,740.820496 485.734314,741.885925 480.902557,742.539734 
	C472.652893,743.656128 467.564575,741.134094 463.888428,733.649963 
	C461.048706,727.868713 456.928955,722.716248 453.186951,717.013000 
z"/>
<path fill="#000000" opacity="1.000000" stroke="none" 
	d="
M232.903000,750.343140 
	C242.961563,775.437683 227.096619,797.622803 201.153915,795.324646 
	C188.631195,794.215332 177.951355,783.383667 174.985352,768.784119 
	C170.452560,746.472534 188.712555,727.587585 211.076065,731.803284 
	C221.476288,733.763794 228.380463,740.516724 232.903000,750.343140 
M216.731277,772.369873 
	C216.025101,763.871338 213.132874,756.129150 208.176529,749.256592 
	C206.171722,746.476746 203.303574,744.648804 199.503708,745.994751 
	C195.677139,747.350159 194.007690,750.178406 194.232544,754.104431 
	C194.708740,762.418884 197.246262,770.095886 201.905746,776.992981 
	C203.987717,780.074768 206.829651,781.981812 210.844681,780.902344 
	C214.783249,779.843323 216.469070,777.057190 216.731277,772.369873 
z"/>
<path fill="#000000" opacity="1.000000" stroke="none" 
	d="
M323.726990,717.037964 
	C322.574738,725.953613 324.141449,734.068665 328.176849,741.559692 
	C331.070343,746.930969 338.379791,747.459961 341.370850,742.754761 
	C343.014282,740.169556 343.622345,737.673218 339.211151,737.151672 
	C333.918793,736.525940 335.667450,731.923584 334.899902,728.911316 
	C334.055725,725.598328 336.812500,725.182983 339.151550,724.784546 
	C344.072815,723.946289 349.053070,723.386414 353.915436,722.294983 
	C357.043610,721.592957 358.225616,722.734985 358.690460,725.548950 
	C360.072418,733.915039 361.493134,742.274719 362.917999,750.633667 
	C363.170380,752.114258 362.914673,753.598389 361.363861,753.832397 
	C358.366638,754.284668 355.344666,756.317993 352.281158,754.145630 
	C351.642944,753.692993 351.224457,752.930481 350.494415,752.059998 
	C345.762360,756.854553 340.310364,759.841431 333.704559,760.250488 
	C316.974823,761.286438 303.956085,749.090454 302.727600,731.170410 
	C302.123718,722.361267 302.638031,713.717590 308.876678,706.663391 
	C315.642609,699.012878 324.006470,695.432800 334.315308,697.570312 
	C336.297089,697.981201 337.676331,698.065674 339.565033,696.420349 
	C341.893311,694.392212 345.529572,694.684692 348.634216,694.165833 
	C350.270416,693.892395 351.008392,695.046448 351.281555,696.514282 
	C352.377319,702.401123 353.429138,708.296448 354.584808,714.171448 
	C354.932922,715.941040 354.448151,716.916687 352.744446,717.653381 
	C347.734497,719.819519 343.960236,718.902588 340.751007,714.528625 
	C335.759247,707.725220 327.390594,708.776672 323.726990,717.037964 
z"/>
<path fill="#000000" opacity="1.000000" stroke="none" 
	d="
M419.513733,746.686890 
	C414.775177,747.241394 410.463196,747.589600 406.192688,748.219055 
	C401.808502,748.865295 399.425415,747.508179 399.738434,742.734619 
	C399.924744,739.893555 397.835388,736.615295 402.313232,734.792847 
	C404.085144,734.071716 402.834381,731.787598 401.414246,730.747986 
	C399.926941,729.659363 389.598572,731.280029 388.556152,732.762634 
	C388.028625,733.512939 387.985046,734.603455 387.734467,735.498169 
	C392.442596,738.020630 394.473541,742.411011 393.631897,747.523254 
	C393.306915,749.497375 391.926727,749.841980 390.441010,750.048096 
	C385.010223,750.801575 379.569672,751.485840 374.130188,752.175659 
	C371.573761,752.499817 369.955750,751.622864 369.702484,748.806519 
	C369.339996,744.775146 366.961212,740.706482 372.641022,737.693420 
	C375.313568,736.275757 374.651184,731.614502 375.357666,728.408813 
	C376.822693,721.761047 377.988190,715.047241 379.278992,708.361023 
	C379.690735,706.228027 379.912354,704.643555 377.607605,702.821594 
	C374.215942,700.140320 375.148743,695.622681 375.059021,691.746399 
	C375.035217,690.716736 376.186798,690.086243 377.216675,689.975769 
	C388.248108,688.792358 399.193298,686.685120 410.984924,686.498047 
	C411.015686,691.224976 414.842712,695.636963 409.988190,699.968994 
	C408.799988,701.029297 410.007172,702.465637 410.531860,703.638550 
	C414.334595,712.139160 418.163177,720.628235 421.972900,729.125793 
	C422.514618,730.334045 422.822601,732.135925 424.173157,732.264832 
	C431.733582,732.986389 428.537231,739.149109 429.663727,743.021790 
	C430.182831,744.806274 428.496552,745.604309 426.898834,745.826782 
	C424.594025,746.147827 422.272797,746.350830 419.513733,746.686890 
M394.467499,719.321655 
	C396.026733,718.928528 397.485840,718.362061 396.659729,716.331543 
	C395.454651,713.369568 394.883331,710.092773 392.387268,706.828857 
	C391.609680,710.499207 390.924011,713.374878 390.407349,716.280579 
	C389.935242,718.935730 391.189606,719.987732 394.467499,719.321655 
z"/>
<path fill="#000000" opacity="1.000000" stroke="none" 
	d="
M539.691528,691.815735 
	C545.682861,682.448914 559.619995,676.885071 570.720276,682.678162 
	C571.895569,683.291504 573.171082,683.785034 574.503479,682.930603 
	C576.644836,681.557190 579.009033,682.193054 581.314758,682.157288 
	C586.079895,682.083435 587.687439,684.222900 587.028687,688.965149 
	C586.390381,693.559631 586.411255,698.251648 586.250488,702.904480 
	C586.155334,705.657349 585.675171,708.283569 582.218994,707.765381 
	C578.973389,707.278687 574.464539,709.356689 573.090271,704.098999 
	C572.713135,702.656067 572.620789,701.112122 572.070740,699.746277 
	C570.786682,696.558105 568.361084,694.642822 564.887573,694.375305 
	C561.258606,694.095825 558.651367,696.050659 557.415955,699.158264 
	C554.178772,707.301147 554.152893,715.723694 556.454346,724.098450 
	C557.359192,727.391174 559.750977,729.541321 563.358521,729.639404 
	C567.254089,729.745422 569.903564,727.772217 571.628113,724.299927 
	C572.546448,722.450745 572.204834,719.479004 574.769592,719.020935 
	C578.075073,718.430481 581.382874,719.479858 584.505493,720.589355 
	C586.867432,721.428406 586.133972,723.545410 585.783142,725.313477 
	C583.479980,736.919067 573.951355,744.094299 561.382202,743.716980 
	C545.740417,743.247498 534.278931,731.669983 533.677979,715.950439 
	C533.351624,707.413635 534.837463,699.402100 539.691528,691.815735 
z"/>
<path fill="#000000" opacity="1.000000" stroke="none" 
	d="
M806.120667,255.912811 
	C808.606506,259.595886 811.859619,262.345764 813.546021,266.894745 
	C805.707214,269.113953 798.066833,269.637207 790.314758,268.731506 
	C788.778259,268.552002 787.881653,267.075531 786.944458,265.904938 
	C770.658569,245.563416 752.501343,227.095932 731.890198,211.107010 
	C729.715210,209.419830 729.124268,207.841187 730.224609,205.164749 
	C732.470215,199.702621 734.340576,194.086166 736.644897,187.766907 
	C763.224609,207.495636 786.034241,230.045746 806.120667,255.912811 
z"/>
<path fill="#000000" opacity="1.000000" stroke="none" 
	d="
M741.087036,766.050781 
	C740.211975,765.797302 739.741882,765.618286 739.255920,765.511902 
	C731.487488,763.810547 729.885132,759.986450 734.076355,752.982178 
	C734.466614,752.329956 735.323914,751.394714 735.840088,751.467834 
	C740.671570,752.152405 740.629456,748.316711 741.413391,745.467651 
	C743.441528,738.096069 745.298462,730.677185 747.213928,723.274719 
	C747.627441,721.676392 748.489563,719.683411 746.883606,718.619263 
	C741.088867,714.779785 745.968323,710.642212 746.459045,706.721191 
	C746.689758,704.877686 748.663147,705.099182 750.196960,705.493469 
	C757.764587,707.439026 765.326233,709.408203 772.903442,711.315857 
	C775.135925,711.877930 776.034424,713.214722 775.291870,715.341492 
	C773.996887,719.050964 775.139282,724.485229 768.522522,724.526123 
	C766.672302,724.537598 766.514465,726.899902 766.092712,728.490234 
	C764.003967,736.366333 761.899231,744.238281 759.834839,752.120728 
	C759.292358,754.192383 758.347351,756.525635 761.337036,757.551758 
	C763.998657,758.465210 766.749695,759.581970 769.061829,756.646057 
	C770.750244,754.502136 771.618469,751.992676 772.557190,749.509644 
	C774.387573,744.667908 777.755066,747.504517 780.527588,747.978760 
	C783.394165,748.469116 784.888855,750.019775 783.878906,753.277588 
	C782.008850,759.309387 780.204895,765.368164 778.621887,771.480042 
	C777.735229,774.903503 776.063721,775.491455 772.794067,774.563049 
	C762.400146,771.611938 751.927063,768.939270 741.087036,766.050781 
z"/>
<path fill="#000000" opacity="1.000000" stroke="none" 
	d="
M503.807251,722.704102 
	C503.802795,714.418579 503.780579,706.598999 503.809265,698.779663 
	C503.817627,696.498108 503.401031,694.989990 500.921967,693.716064 
	C496.441010,691.413574 499.014130,686.891968 498.903412,683.384766 
	C498.804138,680.239929 501.846252,680.839539 503.877319,680.809631 
	C510.530945,680.711792 517.186584,680.744690 523.841431,680.738098 
	C526.043335,680.735962 528.620239,680.609985 528.591797,683.689636 
	C528.560547,687.074463 530.889099,691.427185 526.536499,693.482178 
	C523.877380,694.737488 523.207581,696.161865 523.236084,698.745178 
	C523.325867,706.896423 523.320374,715.049622 523.256531,723.201294 
	C523.236694,725.729309 523.750610,727.234802 526.488953,728.490356 
	C531.128601,730.617493 528.587830,735.217773 528.640564,738.719116 
	C528.687073,741.805176 525.785217,741.320740 523.689392,741.367004 
	C516.873413,741.517456 510.054352,741.555725 503.240662,741.769531 
	C500.145264,741.866638 498.431671,740.797485 498.708435,737.490173 
	C499.013428,733.844849 497.048279,729.410095 502.756073,727.757141 
	C504.371399,727.289368 503.681152,724.789429 503.807251,722.704102 
z"/>
<path fill="#000000" opacity="1.000000" stroke="none" 
	d="
M725.797668,758.480835 
	C725.253845,761.019958 724.137573,761.974609 721.801819,761.496521 
	C714.317261,759.964172 706.804688,758.569275 699.315857,757.057312 
	C696.763123,756.541931 695.664307,755.088806 696.496277,752.360962 
	C697.613708,748.697388 696.397827,743.624451 702.662415,743.302490 
	C703.922363,743.237732 704.225891,741.256470 704.494568,739.983643 
	C706.208252,731.863098 707.881897,723.733826 709.500488,715.593872 
	C709.959045,713.288147 709.898743,711.493713 707.497314,709.610840 
	C703.579895,706.539490 706.988708,702.576843 707.649475,699.124207 
	C708.279114,695.834412 711.143555,697.443054 713.035889,697.773254 
	C719.575989,698.914429 726.052734,700.431335 732.605469,701.481445 
	C736.341003,702.080078 737.519226,703.832458 736.338745,707.281616 
	C735.244934,710.476990 736.747559,715.582458 730.491150,715.078857 
	C729.259033,714.979736 728.915955,716.703003 728.682495,717.797424 
	C726.742920,726.890137 724.874512,735.997986 722.977417,745.099792 
	C722.774048,746.075623 722.296753,747.518127 723.271545,747.847168 
	C729.538452,749.963074 726.476501,754.324280 725.797668,758.480835 
z"/>
</svg>